<svg xmlns="http://www.w3.org/2000/svg" width="40" height="40" fill="none"><circle cx="20.081" cy="20.36" r="19" fill="#fff" fill-opacity=".15" stroke="#fff"/><g clip-path="url(#a)"><path stroke="#fff" stroke-linecap="round" stroke-linejoin="round" stroke-width="1.035" d="M13.195 26.089c.78 1.113 4.168 1.987 5.768-.097 1.73.828 4.586.571 6.91-.725.323-.18.63-.408.816-.727.423-.721.433-1.721-.338-3.196-1.286-3.211-3.598-6.028-4.532-7.162-.192-.175-1.416-.423-2.161-.662-.33-.101-.943-.17-1.677.798-.348.458-1.928 1.584.077 2.341.31.08.54.225 1.956-.034.184-.032.645 0 .97.57l.678.97c.064.09.104.194.117.303.119 1.035.115 2.329.691 2.984-.89-.644-3.216-1.409-4.97.767m-4.316-1.21a4.63 4.63 0 0 1 5.805-.289"/><path fill="#fff" d="m26.288 15.97.43-.948.943-.426-.943-.425-.43-.947-.421.947-.952.425.952.426.42.947Z"/></g><defs><clipPath id="a"><path fill="#fff" d="M11.804 12.083h16.553v16.553H11.804z"/></clipPath></defs></svg>