<svg xmlns="http://www.w3.org/2000/svg" width="40" height="40" fill="none"><circle cx="19.856" cy="19.612" r="19" fill="#fff" fill-opacity=".15" stroke="#fff"/><path fill="#fff" d="M26.867 16.496c-1.13 0-1.76 1.122-1.504 1.955l-2.765 2.773a1.587 1.587 0 0 0-.81 0L19.8 19.238c.265-.834-.366-1.963-1.503-1.963-1.13 0-1.768 1.122-1.503 1.963l-3.553 3.544c-.833-.257-1.955.374-1.955 1.504 0 .857.701 1.558 1.558 1.558 1.13 0 1.76-1.122 1.504-1.956l3.544-3.552c.234.07.576.07.81 0l1.986 1.987c-.264.833.367 1.963 1.504 1.963 1.13 0 1.768-1.122 1.503-1.963l2.773-2.766c.834.258 1.956-.373 1.956-1.503 0-.857-.701-1.558-1.558-1.558Z"/><path fill="#fff" d="m22.193 17.275.732-1.612 1.605-.725-1.605-.724-.732-1.613-.717 1.613-1.62.724 1.62.725.717 1.612Zm-8.958 1.558.39-1.558 1.557-.39-1.558-.389-.39-1.558-.389 1.558-1.558.39 1.558.389.39 1.558Z"/></svg>