<svg xmlns="http://www.w3.org/2000/svg" width="40" height="40" fill="none"><circle cx="19.63" cy="20.109" r="19" fill="#fff" fill-opacity=".15" stroke="#fff"/><g fill="#fff" clip-path="url(#a)"><path d="M25.751 13.988a3 3 0 0 0-4.242 0l-1.146 1.147 4.261 4.26 1.127-1.165a3 3 0 0 0 0-4.242Zm-1.828 6.121-4.266-4.266-4.289 4.297 4.262 4.262 4.293-4.293Zm-5.006 4.994-4.257-4.257-1.15 1.143a3 3 0 0 0 4.24 4.24l.006-.006 1.16-1.12h.001Zm-4.608-5.318 6.492-6.504a4 4 0 0 1 5.66 5.653l-1.477 1.53-5.006 5.005-1.523 1.472a4 4 0 0 1-5.653-5.66l.001-.002 1.505-1.492.001-.002Z"/><path d="M17.19 19.755a.5.5 0 1 1-.814.546.5.5 0 0 1 .814-.546Zm1.415-1.414a.501.501 0 0 1-.351.86.5.5 0 1 1 .351-.86Zm1.415-1.414a.5.5 0 0 1-.708.707.5.5 0 0 1 .707-.707h.001Zm0 5.657a.5.5 0 0 1-.708.707.5.5 0 0 1 .707-.707h.001Zm1.413-1.415a.5.5 0 0 1-.707.708.5.5 0 0 1 .707-.708Zm1.414-1.414a.5.5 0 1 1-.814.546.5.5 0 0 1 .815-.546Zm-4.242 1.414a.501.501 0 0 1-.707.708.5.5 0 0 1 .707-.708Zm1.415-1.414Zm1.413-1.414a.501.501 0 0 1-.351.86.5.5 0 1 1 .351-.86Z"/></g><defs><clipPath id="a"><path fill="#fff" d="M11.63 12.11h16v16h-16z"/></clipPath></defs></svg>